<svg width="529" height="279" viewBox="0 0 529 279" fill="none" xmlns="http://www.w3.org/2000/svg">
<path d="M303.5 137.312L300.5 137.813L294.5 137.312L296 135.812L298.5 132.312H302H306L308.5 130.812L312.5 132.312V128.312C312.5 126.812 312.5 123.612 312.5 122.812C312.5 122.012 312.5 120.812 312.5 120.312C313 119.645 314 118.112 314 117.312C314 116.512 314 114.312 314 113.312C316.5 113.145 321.7 111.912 322.5 108.312C323.5 105.312 323.5 107.312 323.5 106.812C323.5 106.412 325.167 105.645 326 105.312L332.5 101.812L326 97.812L321.5 92.812L316 90.812H315C313.167 89.9786 309.1 88.512 307.5 89.312C305.9 90.112 305.167 90.6453 305 90.812C303.5 90.812 300.3 90.812 299.5 90.812C298.5 90.812 295 91.812 291.5 91.812C288 91.812 289.5 91.812 286.5 90.812C284.1 90.012 282.5 90.4786 282 90.812C281 90.312 278.2 89.312 275 89.312C271 89.312 271.5 89.312 270 89.312C268.5 89.312 269 89.312 267.5 89.312C266 89.312 265.5 89.312 262.5 89.312C259.5 89.312 258.5 90.812 255 91.812C254.2 91.812 252 91.812 251 91.812C250.333 91.812 248.4 91.812 246 91.812C243.6 91.812 243.333 92.4786 243.5 92.812H242.5C242.167 93.4786 240.1 94.912 234.5 95.312C227.5 95.812 232 94.812 228 92.812C225.5 91.312 226 92.812 223 92.812C221.5 92.812 221.5 92.812 220.5 92.812C219.7 92.812 219.5 92.1453 219.5 91.812V90.812L221.5 89.312C222.5 89.312 224.5 89.112 224.5 88.312C224.5 87.312 230.5 87.312 233 87.312C235.5 87.312 236.5 88.312 237.5 88.312C238.3 88.312 238.833 88.312 239 88.312L241.5 86.812L246 87.312L249 86.812L253 85.312C253.5 85.312 254.8 85.112 256 84.312C257.2 83.512 257.5 83.9786 257.5 84.312H265.5L267.5 85.312L275 84.312L277.5 82.812H283H286.5L291.5 84.312H298.5C299.167 84.312 300.8 84.312 302 84.312C303.2 84.312 304.5 84.312 305 84.312C306.667 84.6453 310.3 85.312 311.5 85.312C312.7 85.312 314.333 84.6453 315 84.312C312.333 83.312 306.8 81.312 306 81.312C305 81.312 306 77.312 306 74.312C306 71.912 306 71.6453 306 71.812C303.833 70.6453 299.3 68.012 298.5 66.812C297.5 65.312 297 63.812 297 61.812C297 59.812 294 59.812 293 58.312C292.2 57.112 292.667 57.1453 293 57.312C288.833 56.812 280.2 55.812 279 55.812C277.8 55.812 278.5 56.812 279 57.312C277.667 56.812 274.6 55.612 273 54.812C271.4 54.012 269.667 53.812 269 53.812C267.5 52.812 264.1 50.612 262.5 49.812C260.9 49.012 260.833 48.812 261 48.812C260.833 47.6453 260.3 45.112 259.5 44.312C258.5 43.312 246.5 37.312 241.5 35.312C237.5 33.712 238.167 33.9786 239 34.312C237.333 33.312 233.8 31.112 233 30.312C232.2 29.512 231 28.312 230.5 27.812C230 26.812 228.8 24.612 228 23.812C227 22.812 227 21.812 226 20.812C225 19.812 226 18.312 224.5 16.312C223 14.312 225 14.812 224.5 13.812C224.1 13.012 222.333 13.4786 221.5 13.812C220.5 12.4786 218.4 9.81195 218 9.81195C217.6 9.81195 215.5 8.47862 214.5 7.81195L216.5 4.81194C217.167 5.47861 218.7 6.81195 219.5 6.81195C220.5 6.81195 224.5 9.81195 226 9.81195C227.5 9.81195 230 19.312 230.5 20.812C230.9 22.012 239.333 27.6453 243.5 30.312L249.5 35.312L256 41.312L257.5 42.312C260.167 42.9786 266.2 44.512 269 45.312C271.8 46.112 270.167 44.9786 269 44.312L267.5 16.312L270 13.812L269 9.81195V6.81195L273 11.312C273 12.4786 272.7 15.112 271.5 16.312C270 17.812 269 20.812 269 23.812C269 26.812 269 25.812 269 27.812C269 29.812 270 32.812 270 34.312C270 35.812 271 43.312 271.5 44.312C271.9 45.112 272.667 45.9786 273 46.312C273.333 46.812 274.2 47.812 275 47.812C275.8 47.812 280 49.1453 282 49.812L297 53.812L300.5 57.312C305.833 60.812 316.7 67.912 317.5 68.312C318.5 68.812 320.5 71.312 321.5 74.312C322.5 77.312 322.5 78.812 321.5 79.812C320.5 80.812 321.5 82.812 321.5 85.312C321.5 87.812 322.5 88.312 323.5 90.812C324.5 93.312 327.5 91.812 328.5 91.812C329.3 91.812 330.167 92.4786 330.5 92.812L335.5 91.812L339.5 90.812L344 87.312L345.5 85.312C345 84.6453 344 83.212 344 82.812C344 82.412 342.333 80.6453 341.5 79.812L344 78.812H346.5L349 81.312L351.5 79.812L360.5 77.312L364 74.312L374 73.312C375.5 73.312 378.7 73.312 379.5 73.312C380.3 73.312 381.167 73.312 381.5 73.312L383 70.312C382.5 70.312 380.9 70.312 378.5 70.312C376.1 70.312 374.5 69.6453 374 69.312C372.833 68.6453 370.3 67.212 369.5 66.812C368.7 66.412 367.5 65.312 367 64.812C366.667 64.812 365.8 64.812 365 64.812C364 64.812 362.5 64.312 360.5 63.812C358.9 63.412 356.833 62.9786 356 62.812C355.333 62.1453 353.7 60.612 352.5 59.812C351.3 59.012 349.667 57.812 349 57.312L346.5 53.812L344 49.812L341.5 47.812L339.5 44.312L337.5 39.812V38.812L340.5 43.312L345.5 48.812C346.167 49.6453 347.5 51.3901 347.5 51.7029C347.5 52.0157 348.5 53.2393 349 53.812L350 55.812L351.5 57.312L354 58.312L356 59.812L360.5 60.812L362 61.812L377 63.812H378.5H381.5L385 61.812L387.5 59.812H389L392.5 58.312V57.312L395 53.812L397 51.7029L398.5 49.812V48.812L397 47.812C399.167 47.812 401.8 47.312 395 45.312C395 44.512 394.333 43.6453 394 43.312L397 42.312L401.197 46.312H402C402.5 45.312 403.7 42.912 404.5 41.312C405.3 39.712 404.167 39.6453 403.5 39.812C403 39.4786 402 38.512 402 37.312C402 36.112 403 35.4786 403.5 35.312V32.812V30.312L404.5 29.312L403.5 25.812L402 24.812V23.812C401.167 23.6453 399.3 23.212 398.5 22.812C397.7 22.412 397.167 21.9786 397 21.812H402L400.5 20.812C400.167 20.312 399.3 19.112 398.5 18.312C397.7 17.512 398.167 16.6453 398.5 16.312V14.812L396 13.812L395 12.312C395 11.4786 394.5 9.41195 392.5 7.81195L391 4.81194H395C394 5.14528 392.8 6.21194 396 7.81195C400 9.81196 398 11.312 398.5 12.312C398.9 13.112 400 13.6453 400.5 13.812C401 14.1453 402.3 14.812 403.5 14.812C404.7 14.812 404.667 14.812 404.5 14.812V13.812C404.5 13.312 404.5 12.2188 404.5 11.8462C404.5 11.4736 405.5 10.3348 406 9.81195L407.5 7.81195H410V9.81195C409.833 9.97862 409.4 10.512 409 11.312C408.5 12.312 407.5 12.312 407.5 13.812C407.5 15.312 406 14.812 406 16.312C406 17.512 405 16.812 404.5 16.312C404.5 16.9786 404.5 18.512 404.5 19.312C404.5 20.112 404.5 21.312 404.5 21.812C405 22.4786 406 24.012 406 24.812C406 25.612 407 27.1453 407.5 27.812C407.5 28.812 407.5 31.212 407.5 32.812C407.5 34.412 407.5 34.4786 407.5 34.312L409 37.312C409.667 37.312 411.6 37.312 414 37.312V38.812H412.5L411 39.812L412.5 43.312V45.312V47.812V48.812H417H422.5L424 47.812L428 45.312H432L437 47.812L442.5 48.812H445L449.5 51.312L454 49.812L455 48.812C456 49.1453 458.4 48.512 460 43.312C461.6 38.112 460.667 40.4786 460 42.312V41.312C461.167 39.9786 463.6 37.112 464 36.312C464.4 35.512 465.5 34.6453 466 34.312V32.812H469H470C471 32.4786 473.5 31.312 475.5 29.312C477.5 27.312 480.333 27.4786 481.5 27.812H484H486.5L491 25.812C491.5 25.9786 492.7 26.212 493.5 25.812C494.5 25.312 496 24.312 497.5 20.812C498 19.312 500 18.312 500 16.312C500 14.712 500 14.6453 500 14.812C501 14.312 503.1 13.112 503.5 12.312C504 11.312 505.5 10.812 506.5 9.81195C507.5 8.81195 507.5 7.81194 508.5 5.81194C509.3 4.21194 509.833 4.47861 510 4.81194L528.5 5.81194V38.312C528.167 39.1453 527.4 41.312 527 43.312C526.5 45.812 526 46.312 525 48.312C524 50.312 522 51.312 521 51.312C520 51.312 519.5 53.812 517 58.312C514.5 62.812 519 62.812 519.5 64.812C520 66.812 522 72.812 522 75.312C522 77.812 519 82.312 517 84.312C515 86.312 515.5 86.812 514.5 88.312C513.5 89.812 511.5 92.812 511.5 95.312C511.5 97.312 513.5 98.1453 514.5 98.312L515.5 101.812C515.333 102.979 515.2 105.912 516 108.312C517 111.312 516 110.812 517 114.812C518 118.812 515.5 117.312 514.5 117.812C513.5 118.312 512.5 120.312 511.5 121.312C510.5 122.312 506.5 131.312 506.5 131.812C506.5 132.312 506.5 132.812 507 135.812C507.5 138.812 507 138.312 507 140.312C507 142.312 507.5 141.812 505 145.812C502.5 149.812 501 146.812 500.5 147.312C500 147.812 497 146.812 495 146.312C493 145.812 490 146.312 489.5 146.312C489.1 146.312 487.667 145.979 487 145.812C485.833 146.145 483.4 146.912 483 147.312C482.5 147.812 480.5 148.812 478.5 151.312C476.5 153.812 475.5 151.812 475 151.812C474.5 151.812 468.5 151.812 466 152.312C463.5 152.812 457.5 152.312 455 152.312C452.5 152.312 454 152.312 453.5 152.312C453 152.312 452 151.812 451 152.312C450 152.812 450 153.312 449 153.312C448 153.312 446.5 153.812 445 153.812C443.5 153.812 443 152.812 442 152.312C441 151.812 439.5 151.312 438.5 151.312C437.5 151.312 436.5 152.312 436 152.812C435.5 153.312 435 154.812 434 155.312C433 155.812 433.5 156.312 433.5 157.812C433.5 159.312 433.5 158.812 434 160.812C434.5 162.812 433.5 161.312 433.5 161.812C433.5 162.312 433.5 162.312 435 167.312C436.2 171.312 435.5 169.312 435 167.812L433.5 167.312C433.333 167.145 432.8 165.812 432 161.812C431.2 157.812 430.333 159.812 430 161.312C430 161.645 430 162.612 430 163.812C430 165.312 429.5 165.312 428.5 165.812C427.5 166.312 427.5 165.812 427 165.812C426.5 165.812 426 166.312 425 166.812C424 167.312 423.5 167.812 422 169.312C421.6 170.112 421.833 169.979 422 169.812C421.667 170.312 420.8 172.012 420 174.812C419 178.312 419 176.312 417.5 176.812C416 177.312 415.5 177.312 414.5 177.812C413.7 178.212 413.167 177.979 413 177.812L413.5 176.312C414.333 175.479 416.1 173.712 416.5 173.312C417 172.812 417.5 172.312 418 171.812C418.5 171.312 419 168.812 419 168.312C419 167.812 419 166.812 418.5 165.312C418 163.812 420 164.312 420.5 163.812C421 163.312 424.5 162.312 424.5 161.812C424.5 161.412 424.5 160.979 424.5 160.812C425.333 159.979 427 158.212 427 157.812C427 157.412 429.667 154.312 431 152.812L430 151.812L428 151.312C426.667 151.479 423.8 151.912 423 152.312C422 152.812 421 152.812 420 153.312C419 153.812 419.5 153.812 419.5 154.312C419.5 154.812 418 154.812 417.5 154.812C417 154.812 415 155.312 414.5 155.812C414.1 156.212 413.667 156.645 413.5 156.812C412.5 156.979 410.2 157.412 409 157.812C407.8 158.212 407.167 157.979 407 157.812C407 158.145 407 159.212 407 160.812C407 161.812 407 162.312 406 164.312C405 166.312 405 165.312 405 165.812C405 166.312 404 166.812 402.5 170.812C401.3 174.012 401.667 172.479 402 171.312L399.5 174.812C398.333 175.312 395.7 176.412 394.5 176.812C393.3 177.212 392.667 178.312 392.5 178.812C392.667 178.979 393.5 179.812 395.5 181.812C397 183.812 397 182.812 397.5 183.812C398 184.812 397.5 185.312 398 186.812C398.5 188.312 399.5 188.812 399.5 189.312C399.5 189.812 401.5 189.312 403 192.312C403.5 194.312 403 193.812 402.5 195.812C402 197.812 402 196.312 401.5 197.312C401 198.312 400.5 197.812 399.5 200.312C398.5 202.812 399.5 200.812 400.5 203.312C401.5 205.312 400 204.812 399.5 206.312C399 207.812 399 206.812 399 210.812C399 214.012 399 212.812 399 211.812L397.5 214.812L398.5 216.312C398.833 216.645 400.4 218.112 404 221.312C407.6 224.512 405.833 222.645 404.5 221.312C404.667 221.479 405.6 222.612 408 225.812C411 229.812 408 227.312 408 228.812C408 230.312 411.5 231.312 412.5 231.312C413.3 231.312 412.833 230.312 412.5 229.812C412.333 229.312 411.9 227.912 411.5 226.312C411.1 224.712 411.333 225.312 411.5 225.812C413.167 225.812 416.3 225.912 415.5 226.312C414.5 226.812 414.5 227.812 414 228.312C413.5 228.812 414 229.312 413.5 230.312C413 231.312 413 231.812 413 233.812C413 235.812 413 234.312 414 235.812C414.8 237.012 414.667 236.645 414.5 236.312C414.667 236.812 415.1 238.012 415.5 238.812C416 239.812 415.5 240.312 415.5 241.812C415.5 243.312 415.5 243.312 415.5 244.812C415.5 246.312 415.5 245.812 416 246.812C416.5 247.812 416 247.812 416.5 249.812C416.9 251.412 416 250.812 415.5 250.312C415.167 250.479 414.3 250.512 413.5 249.312C413.5 248.312 413.5 247.812 413.5 246.312C413.5 244.812 413 244.312 411.5 241.812C410 239.312 410.5 240.312 409.5 239.312C408.7 238.512 408.167 237.979 408 237.812C407.667 237.312 406.8 235.612 406 232.812C405 229.312 405.5 230.812 405.5 229.812C405.5 228.812 404 226.812 403 225.812C402 224.812 402 224.312 401.5 223.312C401 222.312 400.5 221.812 400 220.812C399.6 220.012 398.5 219.479 398 219.312L395.5 217.812C394.833 218.312 393.3 219.512 392.5 220.312C391.5 221.312 390.5 222.312 390.5 223.312C390.5 224.312 390 225.312 390 226.312C390 227.312 389.5 227.312 389.5 228.312C389.5 229.312 388.5 229.312 388.5 230.312C388.5 231.312 388 232.312 387.5 233.812C387 235.312 387.5 234.312 386.5 235.812C385.5 237.312 386.5 236.812 386.5 237.812C386.5 238.812 387 238.812 387 239.312C387 239.812 387 240.312 387.5 242.312C388 244.312 388 243.312 388 244.312C388 245.112 389.333 246.645 390 247.312C389.5 247.812 388.5 249.012 388.5 249.812C388.5 250.812 387.5 249.812 387.5 249.312C387.5 248.812 387 246.812 387 246.312C387 245.912 386.333 244.145 386 243.312C385.833 242.812 385.4 241.812 385 241.812C384.6 241.812 384.167 239.145 384 237.812C384 237.145 384 235.712 384 235.312C384 234.812 385 233.812 385.5 233.312C386 232.812 386.5 231.312 387.5 229.812C388.5 228.312 388.5 227.812 388.5 226.312C388.5 224.812 388.5 224.812 388.5 223.312C388.5 221.812 389 221.312 389 220.812C389 220.312 393 217.812 393 217.312C393 216.912 392.667 216.479 392.5 216.312L395 214.812C395.5 214.812 396.6 214.512 397 213.312C397.5 211.812 396.5 209.812 397 209.312C397.5 208.812 398 207.812 398 206.312C398 205.112 397.667 202.812 397.5 201.812C397.667 201.227 398.1 199.808 398.5 198.812C398.9 197.816 399.333 197.397 399.5 197.312L400.5 193.812L398 192.312C397.333 191.479 395.9 189.612 395.5 188.812C395 187.812 394 186.812 393.5 185.812C393 184.812 393 185.812 391.5 185.312C390.3 184.912 388.667 184.145 388 183.812C388.167 182.979 388.5 181.112 388.5 180.312C388.5 179.312 389.5 179.312 389 177.812C388.6 176.612 389.5 176.645 390 176.812C390.667 176.645 392.1 176.112 392.5 175.312C393 174.312 394 174.312 394 173.812C394 173.312 396 173.312 396.5 173.312C397 173.312 398 172.312 398 171.812C398 171.412 399 170.312 399.5 169.812L399 168.312C399.167 167.645 399.5 166.112 399.5 165.312C399.5 164.312 403 161.312 403 160.812C403 160.312 403 159.812 401.5 158.812C401 158.812 400.5 158.812 400 158.812C399.5 158.812 398.5 159.312 398 159.812C397.5 160.312 397 160.812 396.5 160.812C396 160.812 395 161.812 394.5 162.312C394 162.812 393.5 162.812 392.5 163.312C391.5 163.812 388.5 164.812 387.5 166.312C386.5 167.812 384.5 167.312 383.5 168.312C382.5 169.312 380.5 169.312 379.5 170.312C378.5 171.312 377 170.312 377 170.812C377 171.312 374.5 172.312 374 172.812C373.6 173.212 372.5 173.312 372 173.312L371 173.812C370.5 173.645 369 173.712 367 175.312C364.5 177.312 365 175.312 364.5 175.312C364 175.312 364.5 176.812 364.5 178.812C364.5 180.812 365.5 180.812 366 181.812C366.5 182.812 366.5 184.312 366.5 185.312C366.5 186.312 365.5 188.812 365 190.312C364.5 191.812 365 192.312 365 193.312C365 194.312 365 194.312 365.5 196.812C365.9 198.812 366 198.312 366 197.812L365.5 200.312C365.667 201.145 366 203.112 366 204.312C366 205.812 365.5 205.312 366 206.312C366.5 207.312 365.5 207.312 365.5 207.812C365.5 208.312 365 208.312 365 208.812C365 209.312 364 209.812 363.5 210.312C363 210.812 363 211.812 363 213.812C363 215.812 362 215.312 362 214.812C362 214.312 361.5 213.812 361.5 213.312C361.5 212.812 361 211.812 360.5 209.812C360 207.812 361.5 208.312 361.5 207.312C361.5 206.512 362.167 205.979 362.5 205.812C362.5 205.645 362.6 205.212 363 204.812C363.5 204.312 363 203.312 363 201.812C363 200.312 363 200.312 362.5 199.312C362 198.312 361 196.812 360.5 197.312C360 197.812 360 198.812 359.5 199.312C359 199.812 358.5 200.812 358 201.812C357.5 202.812 357.5 202.312 357.5 202.812C357.5 203.312 357 203.312 355.5 205.312C354 207.312 355 207.312 354.5 208.812C354 210.312 353.5 210.812 352 211.812C351.5 211.812 351.5 212.312 351 213.812C350.5 215.312 351 214.812 351 216.312C351 217.812 351 216.812 351 217.312C351 217.812 351.5 219.312 351.5 219.812C351.5 220.312 351.5 220.312 351 220.812C350.5 221.312 351 221.812 350.5 223.312C350 224.812 350 223.812 350 225.312C350 226.312 349.5 226.312 348.5 228.312C347.5 230.312 347.5 229.312 346.5 230.312C345.5 231.312 345.5 231.812 344 233.312C342.5 234.812 343.5 233.812 343 233.812C342.5 233.812 342.5 234.312 342 234.312C341.5 234.312 341 235.312 339 235.312C338 234.812 339 234.812 339 234.312C339 233.912 340.667 232.479 341.5 231.812C342.167 230.812 343.4 228.812 343 228.812C342.5 228.812 344 227.812 344.5 227.312C345 226.812 345.5 225.812 345 225.812C344.5 225.812 345 224.812 348.5 221.312C352 217.812 349 220.812 349 217.812C349 214.812 348.5 216.312 348.5 215.312C348.5 214.312 348.5 212.812 349 212.312C349.5 211.812 350 210.312 351 208.812C351.8 207.612 352.333 205.979 352.5 205.312L353.5 203.312C353.667 202.979 354 202.012 354 200.812C354 199.312 355.5 199.312 356.5 198.312C357.5 197.312 359.5 196.812 360 196.312C360.5 195.812 360.5 193.812 360.5 192.812C360.5 191.812 360.5 191.812 360.5 189.812C360.5 187.812 361 186.812 360.5 184.812C360 182.812 358.5 182.312 358 181.812C357.5 181.312 355.5 180.812 354 180.312C352.5 179.812 352.5 180.312 352 180.312C351.6 180.312 350.5 179.645 350 179.312C349.167 179.312 347.2 179.312 346 179.312C344.5 179.312 343.5 179.812 341.5 181.312C339.5 182.812 340 182.312 338 183.812C336 185.312 336 185.312 335 186.812C334 188.312 334 187.812 334 189.312C334 190.812 333.5 190.312 332 193.812C330.5 197.312 331 194.812 330 195.312C329 195.812 328.5 197.312 328 197.812C327.5 198.312 327.5 198.812 327 199.812C326.5 200.812 327 200.312 327 201.812C327 203.312 327 202.312 329 204.312C330.5 205.312 332 206.312 332 207.812C332 209.312 332 210.312 329 215.312C328 217.312 329 216.312 330 218.312C330.4 218.712 330.833 219.479 331 219.812C331.167 220.812 331.6 223.112 332 224.312C332.5 225.812 329.5 226.812 329 225.812C328.5 224.812 328.5 225.312 327.5 224.312C326.5 223.312 326.5 223.812 325.5 222.812C324.5 221.812 324.5 219.551 324 218.812C323.5 218.073 323.5 217.812 323 216.312C322.5 214.812 323 215.812 322.5 215.312C322 214.812 322.5 214.312 322.5 213.812C322.5 213.312 322.5 212.812 323 212.312C323.5 211.812 323.5 211.312 323.5 210.812C323.5 210.312 323.5 209.312 324 208.812C324.5 208.312 324 207.812 324 205.812C324 203.812 325 204.312 325 203.312C325 202.312 325 202.312 325.5 201.312C326 200.312 326 199.812 326 198.312C326 196.812 325.5 196.812 325 196.312C324.5 195.812 325.5 194.812 325.5 193.812C325.5 192.812 326 192.312 326.5 191.812C327 191.312 327 190.312 327 189.812C327 189.312 327.5 187.812 327 187.312C326.5 186.812 326.5 185.812 326 185.312C325.5 184.812 325 184.312 324 183.312C323.6 183.312 323.167 183.312 323 183.312C321.667 183.645 318.6 184.512 317 185.312C315 186.312 313.5 186.312 312 186.812C310.5 187.312 311.5 187.312 311 187.812C310.5 188.312 309.5 188.812 308.5 189.312C307.5 189.812 307 189.812 304.5 190.312C302 190.812 302.5 191.312 301 192.312C299.5 193.312 300 192.312 299 192.812C298 193.312 298 193.312 296 194.312C294 195.312 293.5 195.312 292 196.312C290.8 197.112 288.833 196.645 288 196.312C288.167 195.979 288 195.612 286 196.812C283.5 198.312 283.5 197.312 282 198.312C280.5 199.312 280.5 199.812 279 201.312C277.5 202.812 277.5 202.812 277.5 203.812C277.5 204.812 278 207.312 278 209.812C277.667 209.645 276.9 209.212 276.5 208.812C276 208.312 275.5 207.812 275.5 206.812C275.5 205.812 274 204.312 273 203.312C272 202.312 270.5 202.812 270 203.312C269.5 203.812 267.5 203.312 267 203.312C266.6 203.312 266.167 203.312 266 203.312H264C262 203.812 257.8 204.812 257 204.812C256 204.812 255.5 204.812 255.5 204.312C255.5 203.812 250 204.312 248.5 204.812C247 205.312 246.5 206.312 246 207.312C245.5 208.312 245.5 207.812 244.5 209.312C243.5 210.812 244 210.812 242.5 212.812C241 214.812 240.5 213.312 240 213.312C239.5 213.312 239 213.812 236.5 216.812C234.5 219.212 235 219.145 235.5 218.812C234.5 219.145 232.3 220.112 231.5 221.312C230.5 222.812 231 222.312 229 224.812C227 227.312 228 227.812 228 228.312C228 228.812 228.5 229.312 229 229.312C229.5 229.312 229 230.812 229 232.312C229 233.812 229.5 234.312 230.5 235.312C231.5 236.312 231.5 236.812 232 238.312C232.5 239.812 232 239.812 232 240.812C232 241.812 233.5 242.812 235 244.812C236.5 246.812 237 245.812 238 246.312C239 246.812 240 247.312 241 247.812C242 248.312 245 248.312 245.5 248.812C246 249.312 247 249.312 248.5 249.812C249.7 250.212 251.667 250.979 252.5 251.312L256.5 253.312H255C253.5 253.145 250.2 252.712 249 252.312C247.5 251.812 244.5 251.812 244 251.312C243.5 250.812 241.5 249.812 241 249.312C240.5 248.812 233 245.312 233 247.812C233 248.812 233 248.812 233 251.312C233 253.312 233 252.479 233 251.812C232.667 253.979 232 258.512 232 259.312C232 260.312 231.5 260.812 231.5 262.812C231.5 264.812 231.5 263.812 231 266.812C230.5 269.812 230 268.812 229.5 271.812C229 274.812 228.5 273.312 227.5 275.312C226.5 277.312 226.5 276.312 225.5 277.312C224.5 278.312 225 277.312 225 275.312C225 273.312 225.5 269.812 225.5 268.312C225.5 266.812 226 266.312 226.5 265.312C227 264.312 227.5 263.812 227.5 262.812C227.5 262.012 227.5 261.812 227.5 261.812L226.5 256.812L228 253.312L227.5 252.812L229 245.812C228.833 244.979 228.4 243.212 228 242.812C227.5 242.312 228 240.812 228 239.812C228 238.812 227 237.812 225.5 235.312C224.3 233.312 224.667 234.145 225 234.812C224.667 234.979 223.9 235.412 223.5 235.812C223 236.312 222.5 237.312 221 238.312C219.5 239.312 220.5 239.312 220 240.312C219.5 241.312 219 241.312 218.5 241.812C218 242.312 218 242.312 217 243.312C216 244.312 216 244.312 215.5 245.312C215 246.312 214 247.312 211.5 249.312C209 251.312 210 248.812 210.5 247.312C211 245.812 211.5 244.312 212 243.312C212.5 242.312 213 239.312 213.5 237.312C214 235.312 214 234.312 214.5 233.812C215 233.312 216.5 230.312 217.5 229.312C218.3 228.512 218.5 228.312 218.5 228.312C219.5 227.979 221.7 227.012 222.5 225.812C223.5 224.312 224.5 223.312 225 223.312C225.5 223.312 226 222.312 227 221.812C228 221.312 227.5 219.312 227.5 218.312C227.5 217.512 227.833 216.645 228 216.312L228.5 214.812C230.5 213.479 234.7 210.812 235.5 210.812C236.3 210.812 238.167 207.812 239 206.312C239.333 205.312 240.2 203.012 241 201.812C242 200.312 241 201.312 241.5 201.312C242 201.312 242.5 197.312 242.5 196.812C242.5 196.312 245 198.312 246 198.312C247 198.312 247.5 197.312 248.5 196.812C249.5 196.312 254.5 194.812 255 194.812C255.5 194.812 257.5 194.812 258.5 194.812C259.5 194.812 261.5 194.312 263.5 194.312C265.5 194.312 266 194.312 266.5 194.312C266.9 194.312 269 193.645 270 193.312C269.333 192.979 267.6 192.012 266 190.812C264 189.312 262.5 189.312 261.5 188.312C260.7 187.512 259.833 186.645 259.5 186.312C258.833 185.312 257.4 183.112 257 182.312C256.5 181.312 256 182.312 253.5 181.312C251 180.312 250 179.812 248.5 179.312C247 178.812 244 178.312 243 178.312C242 178.312 239.5 178.312 236.5 178.312C233.5 178.312 234 177.812 232.5 177.312C231.3 176.912 230.667 177.145 230.5 177.312L230 174.812C230.5 174.979 231.6 175.312 232 175.312C232.5 175.312 235 175.312 236 175.312C237 175.312 240.5 174.812 241 174.812C241.4 174.812 243.167 174.479 244 174.312C244 173.645 243.7 172.212 242.5 171.812C241.5 170.812 240.5 170.312 239 169.312C237.5 168.312 235 167.812 234 167.312C233.2 166.912 232.333 166.479 232 166.312L227 164.312C226.167 163.312 224.5 161.212 224.5 160.812C224.5 160.312 215.5 158.312 213 157.812C211 157.412 210.5 156.979 210.5 156.812L206 156.312C205.167 156.145 203 155.712 201 155.312C199 154.912 197.167 154.812 196.5 154.812L193.5 158.312L192.5 154.812C191.667 153.979 189.5 152.212 187.5 151.812C185 151.312 181.5 149.812 178.5 149.312C175.5 148.812 170.5 148.312 168.5 148.312C166.5 148.312 165 147.812 164 147.812C163 147.812 161 146.812 157 146.312C153.8 145.912 153 146.145 153 146.312L147 143.812C146.167 143.645 144.2 143.212 143 142.812C141.5 142.312 141.5 141.812 140.5 141.812C139.5 141.812 138 138.812 137.5 137.812C137 136.812 134.5 136.312 133.5 136.312C132.7 136.312 132.833 136.979 133 137.312C132.833 137.479 132.4 138.212 132 139.812C131.5 141.812 130.5 141.312 129.5 141.312C128.5 141.312 127 141.312 126.5 141.312C126 141.312 126 141.812 126 142.812C126 143.812 126 143.812 126 146.312C126 148.812 125.5 147.812 125.5 148.812C125.5 149.812 126 149.812 126.5 150.312C126.9 150.712 127.333 151.479 127.5 151.812L129 153.312H131L134 154.812C133.167 155.145 131.3 155.912 130.5 156.312C129.7 156.712 128.167 155.812 127.5 155.312C127.333 154.812 126.7 153.712 125.5 153.312C124 152.812 122.5 151.312 122 150.312C121.5 149.312 125 141.812 125.5 140.312C126 138.812 122.5 138.812 122 137.812C121.5 136.812 117 137.812 116.5 137.812C116 137.812 113.5 136.312 112.5 135.812C111.5 135.312 110 132.812 109 131.812C108 130.812 106 130.312 104.5 129.312C103 128.312 102 127.812 97.5 127.812C93.9 127.812 94.3333 128.145 95 128.312C94.6667 128.479 93.7 128.812 92.5 128.812C91 128.812 92.5 130.312 92 130.312C91.5 130.312 90 131.312 89 132.812C88 134.312 86.5 133.812 85.5 133.312C84.7 132.912 83.1667 132.479 82.5 132.312C80.1667 132.145 75 131.912 73 132.312C70.5 132.812 67 132.312 66 133.312C65.5 133.812 63.5 134.312 63 134.812C62.5 135.312 60.5 136.812 59.5 136.812C58.7 136.812 60.5 139.145 61.5 140.312C60.3333 140.479 57.5 140.912 55.5 141.312C53 141.812 55.5 143.312 55.5 145.312C55.5 147.312 53.5 146.312 51.5 146.812C49.5 147.312 47.5 144.812 47.5 144.312C47.5 143.812 45 143.812 43.5 143.812C42 143.812 38.5 144.312 37 143.812C35.5 143.312 37 143.312 37 142.812C37 142.412 37 141.979 37 141.812C36.8333 141.145 36.5 139.712 36.5 139.312C36.5 138.812 45 139.812 46 139.812C47 139.812 48.5 137.812 50 138.312C51.5 138.812 51 138.312 51.5 138.312C52 138.312 53.5 137.812 54 137.812C54.5 137.812 54.5 137.312 55.5 137.312C56.3 137.312 56.8333 136.979 57 136.812H58L58.5 136.312C59 135.979 60.4 134.712 62 132.312C63.6 129.912 64 129.979 64 130.312C63.1667 130.312 61.1 130.412 59.5 130.812C57.5 131.312 55 130.812 52 130.312C49 129.812 50 130.312 48.5 130.312C47 130.312 45.5 129.812 44.5 129.812C43.5 129.812 43.5 129.812 41.5 129.812C39.5 129.812 39.5 130.312 38 129.812C36.5 129.312 36 129.812 33 129.312C30 128.812 29.5 129.312 28.5 129.312C27.5 129.312 24.5 128.812 23.5 128.312C22.5 127.812 21.5 128.312 21 127.812C20.5 127.312 17.5 127.312 16 126.812C14.5 126.312 13 125.312 12 125.312C11 125.312 11.5 123.812 12 123.812C12.5 123.812 16.5 123.812 17 123.812C17.5 123.812 19 124.312 19.5 124.312C20 124.312 22.5 124.812 24.5 124.812C26.1 124.812 26.5 124.479 26.5 124.312L27 123.812C27.8333 123.812 29.8 123.812 31 123.812C32.2 123.812 33.5 124.145 34 124.312L39 125.312C39.8333 125.479 41.6 125.912 42 126.312C42.5 126.812 44 126.312 44.5 126.312C45 126.312 48 125.812 48.5 125.812C48.9 125.812 54 126.145 56.5 126.312C57 126.312 58.3 126.412 59.5 126.812C61 127.312 61 126.312 61.5 126.812C62 127.312 66.5 127.812 67.5 128.312C68.5 128.812 69.5 128.312 70.5 128.312C71.5 128.312 74.5 128.312 77 128.312C79.5 128.312 84 129.312 85.5 129.312C87 129.312 87 129.312 87.5 128.312C87.9 127.512 88.6667 127.312 89 127.312L89.5 125.812V122.312C89 121.645 88 120.112 88 119.312C88 118.312 86.5 117.812 86 117.312C85.5 116.812 82 113.812 80.5 112.312C79 110.812 79.5 111.312 79 110.812C78.6 110.412 76.8333 110.312 76 110.312C75 110.312 72.9 110.312 72.5 110.312C72.1 110.312 67.3333 107.979 65 106.812L55.5 101.812C55.1667 101.812 54.4 101.912 54 102.312C53.6 102.712 53.1667 102.479 53 102.312C51.8333 102.645 48.8 103.412 46 103.812C42.5 104.312 41.5 105.312 39 105.812C36.5 106.312 36.5 106.312 36 107.312C35.5 108.312 32.5 108.812 32 109.312C31.5 109.812 26.5 109.812 25.5 109.312C24.5 108.812 22 109.812 21 109.812C20.2 109.812 20.6667 110.145 21 110.312H19.5C17.6667 110.312 13.8 110.312 13 110.312C12 110.312 11.5 110.312 11 110.312C10.5 110.312 10 110.312 7.5 110.812C5.5 111.212 4.33333 111.645 4 111.812L0.5 114.812V110.812L7.5 108.812L17 107.312L22 106.812L23.5 105.812C26 105.645 31.1 105.112 31.5 104.312C31.9 103.512 31.6667 103.312 31.5 103.312V100.812C34.5 100.812 40.7 100.812 41.5 100.812C42.3 100.812 46.8333 100.145 49 99.812H52L49 97.812L46.5 96.312V95.812C45.1667 95.312 42.1 94.012 40.5 92.812C38.9 91.612 36.8333 91.6453 36 91.812C34.5 91.4786 31.2 90.712 30 90.312C28.8 89.912 28.1667 88.4786 28 87.812L23.5 85.312C21.5 84.9786 16.8 84.012 14 82.812C11.2 81.612 9.5 81.6453 9 81.812C7.5 80.812 4.5 78.512 4.5 77.312C4.5 76.112 4.5 73.1453 4.5 71.812L9 78.312L14 78.812C18.0929 79.5179 25.7229 81.0063 23.5 81.312C21.2771 81.6176 18.5738 79.7727 17.5 78.812L15.5 76.312L14 67.312C16 67.4786 20 68.112 20 69.312C20 70.812 20 73.312 22 78.312C23.5 79.312 24.5 79.812 33.5 85.312C36.7 87.312 36.5 87.1453 36 86.812C37.5 87.4786 40.9 88.912 42.5 89.312C44.1 89.712 44.5 89.812 44.5 89.812C46.8333 90.9786 51.8 93.512 53 94.312C54.2 95.112 54.5 94.9786 54.5 94.812L61.5 99.812L77 106.812L81.5 105.812H84C84.8333 106.479 87.7 110.112 92.5 119.312C98.5 130.812 95 121.812 98.5 121.812C101.3 121.812 102.333 122.479 102.5 122.812H104.5H106C109.167 123.812 116.2 126.312 119 128.312C121.8 130.312 125.5 131.812 127 132.312L124.5 128.312C125.333 126.145 125.4 119.612 119 110.812C117 110.012 115.833 108.812 115.5 108.312C115.167 107.479 114.1 105.312 112.5 103.312C110.5 100.812 112.5 99.312 112.5 92.812C112.5 90.812 112.5 89.6453 112.5 89.312C111.333 87.6453 108.4 82.512 106 75.312C103 66.312 106 70.312 104.5 68.312C103 66.312 100 64.812 95 59.812C90.0001 54.812 92.5 57.312 92.5 54.812C92.5 52.812 91.5 51.9059 91 51.7029C90 51.4059 87.7 50.612 86.5 49.812C85 48.812 84 46.312 81.5 45.312C79 44.312 79 42.312 77 40.812C75.4 39.612 74.6667 35.6453 74.5 33.812C76 34.312 79.5 36.012 81.5 38.812C83.5 41.612 84 41.6453 84 41.312C84.8333 41.9786 86.5 43.512 86.5 44.312C86.5 45.312 89 47.312 91 48.812C93 50.312 98.5 51.7029 98.5 46.312L92.5 29.312C98.5 41.312 86 27.812 84 27.812C82 27.812 79.8333 27.1453 79 26.812L84 24.812L86.5 22.812V21.312C85.6667 19.6453 84 15.812 84 13.812C84 11.812 84 14.6453 84 16.312C86.6667 16.312 92.1 16.012 92.5 14.812C93 13.312 95 11.312 95 9.81195C95 8.61195 95 7.31195 95 6.81195L98.5 4.81194L100 0.811951C101.5 1.97862 104.5 4.81195 104.5 6.81195C104.5 9.31195 102.5 9.81195 102.5 11.8462C102.5 13.8805 100.5 16.312 98.5 17.312C96.5 18.312 95.5 19.312 95 21.812C94.5 24.312 98 26.812 102.5 32.812C104.5 35.312 100.5 35.312 102.5 39.812C104.1 43.412 103.167 45.6453 102.5 46.312L100.5 48.812C100.833 49.9786 101.7 52.712 102.5 54.312C103.3 55.912 105.167 57.9786 106 58.812L109 61.812L112.5 68.312L111 69.312C110.667 70.812 110.2 74.612 111 77.812C111.8 81.012 112.333 81.812 112.5 81.812C113.333 82.6453 115.5 85.612 117.5 90.812C117.5 93.312 117 94.312 117.5 96.812C118 99.312 117.5 99.812 119 103.312C120.5 106.812 122 107.312 124.5 107.812C127 108.312 127 110.812 130.5 113.812C133.3 116.212 131.667 116.479 130.5 116.312C130.5 117.312 131 120.012 133 122.812C135.5 126.312 135.5 129.312 142.5 137.312C147.5 142.312 144.5 137.312 146.5 135.812C148.1 134.612 149.167 133.979 149.5 133.812C149.5 130.979 149.5 124.812 149.5 122.812C149.5 120.812 149.5 120.312 149.5 120.312C150.833 117.479 153.1 111.212 151.5 108.812C149.9 106.412 149.5 107.479 149.5 108.312L146.5 106.812V104.312L144.5 100.812C143.833 99.312 141.1 95.212 135.5 90.812C129.9 86.412 131.5 86.9786 133 87.812L127 82.812V73.312V75.312L130.5 80.812C131.667 81.812 134.3 84.012 135.5 84.812M303.5 137.312H305M303.5 137.312C303.5 140.812 302 141.312 302 141.812C302 142.312 300.5 142.812 299.5 143.812C298.7 144.612 297.5 145.812 297 146.312C297.333 146.812 297.8 147.912 297 148.312C296 148.812 294.5 149.312 294.5 150.312C294.5 151.112 292.5 152.312 291.5 152.812C291.5 152.979 291.5 153.612 291.5 154.812C291.5 156.012 290.167 157.312 289.5 157.812L288 158.812L280.5 161.812L276.5 164.312C275.3 164.312 272.333 166.312 271 167.312L266.5 171.312H261.5L259.5 174.312C258.833 174.479 257.9 174.912 259.5 175.312C263 175.812 264.5 174.312 265.5 174.312C267.9 173.112 269.5 171.812 270 171.312C269 171.645 267.8 172.112 271 171.312C274.2 170.512 276.667 169.312 277.5 168.812C278 168.312 279.3 167.312 280.5 167.312C284.5 167.312 291.5 163.812 292.5 162.812C294.1 158.812 295.5 156.479 296 155.812C295.833 156.145 295.8 156.412 297 154.812C299.8 152.012 302.5 150.645 303.5 150.312C303.5 150.479 303.5 151.212 303.5 152.812C303.5 154.812 304 153.812 305 155.812C310 158.812 312.5 159.312 310.5 161.812C308.9 163.812 307.833 165.645 307.5 166.312C307.167 167.145 306.7 168.812 307.5 168.812C309.9 166.812 311.167 164.979 311.5 164.312L312.5 161.812C313.5 162.145 315.2 162.412 314 160.812C312.5 158.812 313.5 158.812 312.5 156.812C311.5 154.812 312.5 155.312 310.5 152.812C308.9 150.812 307.833 148.979 307.5 148.312C306.5 148.145 304.8 147.512 306 146.312C307.2 145.112 308.167 142.812 308.5 141.812V139.812C308.333 139.312 308.1 138.112 308.5 137.312C310.1 136.112 313.5 135.812 315 135.812L318.5 134.312C318.333 132.145 317.9 127.612 317.5 126.812C317 125.812 317.5 125.812 317.5 124.312C317.5 122.812 317.5 121.312 318.5 120.312C319.3 119.512 320.833 118.645 321.5 118.312C321.333 118.479 321.5 118.512 323.5 117.312C326 115.812 326.5 118.312 328.5 114.812C332.5 110.812 335.5 109.812 335.5 108.312C335.5 107.112 335.5 105.145 335.5 104.312C336.167 104.479 337.6 104.512 338 103.312C338.4 102.112 339.833 100.145 340.5 99.312C341.333 98.9878 343.1 98.334 343.5 98.312C343.9 98.2899 347.333 97.9694 349 97.812V96.312C350.167 95.1453 352.5 93.312 352.5 95.312C352.5 97.312 351.833 98.812 351.5 99.312C351.167 99.6453 350.7 100.612 351.5 101.812C352.5 103.312 352.278 106.812 353.139 106.812C354 106.812 354 111.312 354 111.812C354 112.312 356 113.812 356 114.812C356 115.612 354.667 117.479 354 118.312C353.5 118.312 352.5 118.512 352.5 119.312C352.5 120.312 352.278 119.812 353.139 122.812C354 125.812 354.861 124.312 354 128.312C353.139 132.312 354 137.812 355 132.312C355.8 127.912 356 125.145 356 124.312L357 121.812C357 121.979 357 121.912 357 120.312C357 118.712 357 115.979 357 114.812C357 114.812 357 114.512 357 113.312C357 112.112 358.333 110.479 359 109.812C359.667 110.312 360.6 110.712 359 108.312C357.4 105.912 356.333 103.979 356 103.312C356 102.312 356 100.112 356 99.312C356 98.512 356 96.9786 356 96.312C355.833 94.9067 356 92.2393 358 92.812C362 91.812 363 91.312 365.5 90.312C368 89.312 370.5 89.312 371.5 88.312C372.5 87.312 372.5 88.312 374 86.812C375.5 85.312 375.5 86.312 377 85.312C378.2 84.512 380.5 83.312 381.5 82.812L386.5 84.312C387.333 85.4786 389 88.112 389 89.312C389 90.812 390.5 91.312 391.5 92.812C392.5 94.312 392.5 94.812 392.5 92.812C392.5 90.812 393.5 89.812 392.5 88.312C391.5 84.312 389.5 84.312 394 82.812C398.5 81.312 400.5 79.812 402 79.812C403.2 79.812 406.167 79.1453 407.5 78.812C408 78.9786 409.2 78.912 410 77.312C411 75.312 411 74.312 412.5 74.312C413.7 74.312 418 75.6453 420 76.312C420.333 76.312 421.3 76.112 422.5 75.312C424 74.312 423 73.312 425.5 73.312C427.5 73.312 430.667 73.312 432 73.312C432 72.812 432.2 71.812 433 71.812C433.8 71.812 437.333 71.812 439 71.812C437.667 71.312 436 70.112 440 69.312C445 68.312 444.5 65.812 446 66.812C449.5 67.812 455 69.812 455 68.312C455 67.112 456 65.4786 456.5 64.812C457 64.812 458.2 65.012 459 65.812C459.8 66.612 462.667 67.812 464 68.312C465.667 69.1453 469 70.312 469 68.312C469 66.312 469.667 64.4786 470 63.812C469.667 63.812 469.4 63.612 471 62.812C473 61.812 473.5 63.812 474.5 61.812C475.3 60.212 477.5 59.812 478.5 59.812H479.5C479.333 59.6453 479.5 59.112 481.5 58.312C483.5 57.512 484.667 56.312 485 55.812C484 55.1453 482.6 53.812 485 53.812C488 53.812 488.5 53.312 489.5 53.812C490.5 54.312 490.5 53.812 491 55.812C491 60.812 493 57.312 492.5 62.812C492.1 67.212 491.333 70.6453 491 71.812C490.333 72.9786 488.9 75.312 488.5 75.312C487.5 77.312 486.5 74.812 486.5 77.312C486.5 79.312 486.5 80.812 486.5 81.312L485 91.812L482.5 94.312L476.5 95.312L474.5 97.812C474 98.312 472.8 99.312 472 99.312C471.2 99.312 468.667 99.312 467.5 99.312C467 99.4786 465.8 99.912 465 100.312C464.2 100.712 463 101.479 462.5 101.812C461.667 101.812 459.8 101.812 459 101.812C458.2 101.812 453.667 102.812 451.5 103.312C451.667 103.312 451.5 103.312 449.5 103.312C446.7 104.112 439.333 105.312 436 105.812L435 108.312C435.333 107.812 435.4 107.112 433 108.312C430 109.812 428 108.812 428 109.812C428 110.812 427 111.812 425.5 111.812C424.3 111.812 424 112.812 424 113.312C424 113.312 423.7 113.312 422.5 113.312C421.3 113.312 418 113.645 416.5 113.812C416.333 113.979 415.8 114.212 415 113.812C414.2 113.412 413 113.312 412.5 113.312C412.333 114.479 411.8 116.112 411 113.312C410.2 110.512 409.333 109.812 409 109.812C408.833 109.812 408 110.012 406 110.812C404 111.612 400.167 111.145 398.5 110.812C398.5 110.645 398.5 110.612 398.5 111.812C398.5 114.812 399 116.812 397 116.312C395.4 115.912 392 115.145 390.5 114.812C388 115.312 387 113.312 385 114.812C383 116.312 382 113.312 379.5 114.812C377 116.312 376.5 115.312 374 116.312C371.5 117.312 367.5 116.312 368.5 118.312C369.3 119.912 370.833 121.312 371.5 121.812C371.333 121.812 371.3 121.812 372.5 121.812C374 121.812 374.5 122.812 375.5 121.812C376.5 120.812 377.5 120.312 378.5 120.312C379.3 120.312 381.833 119.645 383 119.312C383.167 118.979 383.8 118.512 385 119.312C389 121.812 390.5 121.312 389 122.812C387.8 124.012 385.833 124.312 385 124.312C383.833 124.312 381.5 124.512 381.5 125.312C381.5 126.312 380.5 125.312 379.5 126.812C378.5 128.312 380 126.312 377 129.312C374 132.312 374 132.812 374 134.312C374 135.812 375.5 132.812 374 137.312C372.5 141.812 369.5 143.812 369.5 144.812C369.5 145.812 368.5 142.312 368.5 146.312C369.5 150.812 371.5 152.312 371.5 151.812C371.5 151.312 371 151.812 372.5 150.312C374 146.312 374 146.312 375.5 144.812C377 143.312 375.5 144.812 377 142.312C378.2 140.312 378.5 138.145 378.5 137.312C378.833 136.979 379.5 135.912 379.5 134.312C379.5 132.312 381 131.812 381.5 132.312C382 132.812 384 133.312 384.5 133.812C384.9 134.212 386 133.979 386.5 133.812C386.667 133.479 386.9 132.712 386.5 132.312C386.1 131.912 385.333 130.145 385 129.312C388.2 127.312 390.667 126.812 391.5 126.812C392 126.645 393.2 126.112 394 125.312C400.5 124.312 399.5 124.312 403.5 124.312C407.5 124.312 405.5 124.312 409 124.312C411.8 124.312 414.167 124.979 415 125.312H417L416.5 129.312C416.333 129.645 415.9 130.512 415.5 131.312C415.1 132.112 414.667 133.979 414.5 134.812C414.167 135.312 413.3 136.512 412.5 137.312C411.5 138.312 406 139.812 406 140.812C406 141.812 407.5 139.812 407.5 142.312C407.5 144.312 407.5 145.812 407.5 146.312C407.333 146.979 406.8 148.512 406 149.312C405 150.312 404 150.312 402 150.312C400.4 150.312 398 151.312 397 151.812C396 151.812 394 152.012 394 152.812C394 153.812 391.5 153.812 389 154.812C387 155.612 381.833 157.145 379.5 157.812C379.167 157.645 378.5 158.012 378.5 160.812C378.5 163.612 375.5 164.312 374 164.312H372.5L369.5 165.312L353.139 172.312C351.926 171.312 349.1 169.712 347.5 171.312C345.5 173.312 342.5 172.312 341.5 173.312C340.7 174.112 338.833 175.645 338 176.312H336.5C335.833 176.812 334.1 177.812 332.5 177.812C330.5 177.812 326 176.312 326 177.812C326 179.312 326.5 180.312 324.5 180.312C322.9 180.312 315.167 180.312 311.5 180.312L309 180.812H307.5L305 182.312C302 181.312 296 179.612 296 180.812C296 182.012 296 183.979 296 184.812C296.167 185.312 296.1 186.412 294.5 186.812C292.9 187.212 290.5 186.979 289.5 186.812C289.167 186.979 288.1 187.512 286.5 188.312C284.5 189.312 283.5 189.312 282 189.812C280.8 190.212 277.833 189.979 276.5 189.812C276.333 190.312 275.5 191.012 273.5 189.812C269 186.812 270.5 184.812 268.5 184.812C266.9 184.812 263.833 184.812 262.5 184.812L260.5 179.312C260 179.979 258.7 181.112 257.5 180.312C256 179.312 256 178.312 255 176.312C254 174.312 255 174.312 253 173.312C248.331 168.812 248.5 168.312 248 166.312C247.5 164.312 248 164.812 248 162.812C248 160.812 247 159.812 247 158.812C247 155.812 248 153.812 247 152.812C245 152.812 243.833 156.145 243.5 157.812V160.812L242.5 161.812L241.5 162.812L237.5 161.812L233 160.812H230.5L224.5 155.812C225 156.145 225.7 156.812 224.5 156.812C223.3 156.812 218.667 156.145 216.5 155.812V154.812L208.5 150.312C206.833 150.312 203.2 149.912 202 148.312C200.8 146.712 199.167 146.312 198.5 146.312C198 146.812 196.9 147.012 196.5 143.812C196 139.812 196.5 139.312 196.5 135.812C196.5 132.312 194.5 130.312 194.5 129.312C194.5 128.312 196.5 128.812 196.5 125.812C196.5 122.812 197 124.312 198.5 121.812C200 119.312 202 118.812 202 117.312C202 115.812 198.5 113.312 197.5 113.312C196.5 113.312 197.5 112.312 196.5 114.812C195.5 117.312 191.5 118.312 191.5 119.312C191.5 120.312 191.5 121.812 191.5 124.312C191.5 126.812 191.5 124.312 191.5 129.312C191.5 133.312 192.5 136.312 193 137.312C193 138.479 193 141.012 193 141.812C193 142.812 191.5 143.812 190.5 143.812C189.5 143.812 185 143.812 184.5 143.812C184 143.812 179.5 143.812 178 143.812C176.8 143.812 171.833 143.812 169.5 143.812L167.5 142.812L156 141.812C155.833 141.979 155.3 141.812 154.5 139.812C153.5 137.312 153.5 137.312 153.5 135.812C153.5 134.312 154.5 133.312 154.5 130.812C154.5 128.312 153.5 128.812 156 125.812C158.5 122.812 156 122.812 161 119.312C165 116.512 168.333 114.145 169.5 113.312H170.5L172 111.312H177L178 109.812C178.5 109.812 179.8 109.512 181 108.312C182.6 105.912 181.667 103.979 181 103.312L178 104.312C178 104.145 177.8 104.112 177 105.312C176 106.812 173.5 106.812 172 106.812C170.5 106.812 168.5 105.312 169.5 104.312C170.5 103.312 171 101.812 172 100.812C173 99.812 173.5 99.312 174.5 97.812C175.3 96.612 176.5 93.9786 177 92.812L178 90.812L177 89.312C175.833 89.4786 173.2 90.212 172 91.812C170.5 93.812 172 93.812 172 95.312C172 96.512 171 98.1453 170.5 98.812C170.5 99.4786 170.3 100.812 169.5 100.812C168.7 100.812 167.167 102.479 166.5 103.312C166.667 102.812 166.7 102.312 165.5 104.312C164.3 106.312 163 107.812 162.5 108.312C162.667 109.145 162.5 110.412 160.5 108.812C158 106.812 156 108.312 156 106.812C156 105.312 155.5 105.312 154.5 104.312C153.7 103.512 152.167 103.312 151.5 103.312V97.812C151.333 97.9786 150.7 98.012 149.5 96.812C145.5 92.812 138.5 87.812 142.5 90.812M486.5 106.812L489.5 108.312L491 111.812L492.5 114.812C492.167 115.312 491.7 116.612 492.5 117.812C493.3 119.012 493.5 120.979 493.5 121.812V126.812C492.5 128.312 490.3 131.312 489.5 131.312C488.5 131.312 480.5 133.812 479.5 134.312C478.7 134.712 472.5 137.479 469.5 138.812C470 139.479 470.3 140.812 467.5 140.812C464.7 140.812 455.667 139.479 451.5 138.812L446 142.312C444.333 143.145 440.6 144.812 439 144.812C437 144.812 429.5 142.812 427.5 143.812C425.5 144.812 423.5 142.812 422 143.812C420.8 144.612 418.833 144.812 418 144.812H415.5C415.833 144.979 416.5 145.012 416.5 143.812C416.5 142.312 417.5 144.812 418 140.312C418.5 135.812 418.5 134.312 419.5 131.812C420.5 129.312 421 129.812 422 128.312C424.5 125.312 424 126.812 427.5 124.312C430.3 122.312 432.333 120.812 433 120.312C433.167 119.979 434 119.312 436 119.312C438.5 119.312 440 117.812 442.5 117.812C445 117.812 441 116.312 446 116.312C451 116.312 447 118.812 459 114.812C468.6 111.612 473.333 110.812 474.5 110.812C473.833 110.812 473.1 110.812 475.5 110.812C477.9 110.812 481.5 110.145 483 109.812L484 108.312L486.5 106.812Z" stroke="black"/>
</svg>
